<?xml version="1.0" encoding="UTF-8"?>
<svg version="1.1" xmlns="http://www.w3.org/2000/svg" width="1073" height="976">
<path d="M0 0 C354.09 0 708.18 0 1073 0 C1073 322.08 1073 644.16 1073 976 C718.91 976 364.82 976 0 976 C0 653.92 0 331.84 0 0 Z " fill="#FEFEFE" transform="translate(0,0)"/>
<path d="M0 0 C1.16789062 0.30292969 2.33578125 0.60585938 3.5390625 0.91796875 C7.96177441 3.87253525 8.86992048 7.85849395 10.375 12.8125 C10.78057129 14.14438354 10.78057129 14.14438354 11.19433594 15.50317383 C12.00848286 18.36418011 12.73795937 21.23386204 13.4375 24.125 C13.82264771 25.70873413 13.82264771 25.70873413 14.21557617 27.32446289 C17.01149801 39.52654413 18.10088876 51.86089051 19.08129883 64.32006836 C19.23155334 66.80849673 19.23155334 66.80849673 20.375 68.8125 C20.75541388 73.17981669 20.79267389 77.5559213 20.875 81.9375 C20.92914062 83.14921875 20.98328125 84.3609375 21.0390625 85.609375 C21.12852912 91.47582882 21.17167662 95.73204049 17.234375 100.3125 C15.97759778 101.51108131 14.69168522 102.68005742 13.375 103.8125 C12.3271177 104.82969251 11.28018172 105.84786115 10.234375 106.8671875 C9.2020452 107.81182336 8.16550961 108.75188177 7.125 109.6875 C6.56635254 110.19579346 6.00770508 110.70408691 5.43212891 111.2277832 C4.29323683 112.26344804 3.1527957 113.29741224 2.01074219 114.32958984 C0.49133637 115.70703326 -1.01655112 117.09715299 -2.5234375 118.48828125 C-7.79702314 123.34632647 -13.19014773 127.98628803 -18.7734375 132.484375 C-21.23949545 134.4977593 -23.6532991 136.55917182 -26.05712891 138.64599609 C-41.20660282 151.72898929 -57.82368787 162.97869511 -74.625 173.8125 C-75.26791992 174.22806152 -75.91083984 174.64362305 -76.57324219 175.07177734 C-93.15820628 185.67972252 -111.17979917 194.85196357 -129.3359375 202.43359375 C-132.34757681 203.69619313 -135.29643185 205.04583316 -138.25 206.4375 C-197.12938721 233.17710336 -272.31511003 237.61406981 -333.625 216.8125 C-337.41897918 214.28318055 -337.3530879 213.01490095 -338.34375 208.65234375 C-338.63475586 207.39244629 -338.92576172 206.13254883 -339.22558594 204.83447266 C-339.5261644 203.47315239 -339.82595321 202.11165756 -340.125 200.75 C-340.43738329 199.36236782 -340.75021013 197.97483542 -341.06347656 196.58740234 C-343.20267901 187.03983069 -345.22927338 177.50048475 -346.625 167.8125 C-346.82585205 166.44883301 -346.82585205 166.44883301 -347.03076172 165.05761719 C-351.12852806 136.70973981 -351.12852806 136.70973981 -349.625 126.8125 C-347.72265625 124.359375 -347.72265625 124.359375 -345.625 122.8125 C-344.965 122.8125 -344.305 122.8125 -343.625 122.8125 C-342.635 120.8325 -342.635 120.8325 -341.625 118.8125 C-340.965 118.8125 -340.305 118.8125 -339.625 118.8125 C-339.41488281 118.2659375 -339.20476562 117.719375 -338.98828125 117.15625 C-337.12872638 113.95930753 -334.54523094 111.74531163 -331.8125 109.3125 C-330.63255302 108.24507843 -329.45287312 107.17736157 -328.2734375 106.109375 C-327.36609863 105.29243164 -327.36609863 105.29243164 -326.44042969 104.45898438 C-324.68695257 102.86868722 -322.95335956 101.25981153 -321.2265625 99.640625 C-315.67073006 94.43423662 -310.07023458 89.411385 -304.0625 84.72265625 C-301.5009688 82.71530247 -299.00184928 80.64365141 -296.5 78.5625 C-278.94157984 64.20099107 -260.2954837 51.1142189 -240.625 39.8125 C-239.98498047 39.4417334 -239.34496094 39.0709668 -238.68554688 38.68896484 C-228.85253018 33.00470618 -218.84634418 27.76159496 -208.625 22.8125 C-207.66762939 22.34432861 -207.66762939 22.34432861 -206.69091797 21.86669922 C-198.88295799 18.05934747 -191.02992251 14.74120259 -182.80078125 11.921875 C-180.14526294 10.99424007 -177.58446834 9.97939628 -175 8.875 C-154.55173027 0.56789042 -132.35202946 -3.86787976 -110.625 -7.1875 C-109.83287109 -7.30899414 -109.04074219 -7.43048828 -108.22460938 -7.55566406 C-73.00091171 -12.69949088 -34.34334336 -9.11074309 0 0 Z " fill="#000000" transform="translate(707.625,516.1875)"/>
<path d="M0 0 C12.9877345 10.50915921 25.51660776 33.02619524 27.3828125 49.6484375 C27.49601663 58.00290203 25.6104043 63.31796964 21.421875 70.40625 C12.216262 79.12735705 -2.6461871 81.92429359 -14.53515625 85.3671875 C-23.14183849 87.86522916 -31.76333418 90.40114468 -40.140625 93.59375 C-45.23147082 95.49524152 -50.41001549 96.9495089 -55.640625 98.40625 C-63.64103349 100.63621568 -71.5240581 103.1179222 -79.390625 105.78125 C-86.5845052 108.21683103 -93.76675457 110.51828331 -101.08984375 112.5390625 C-114.7382316 116.39989678 -128.19108955 121.04338195 -141.62792969 125.57763672 C-147.23497541 127.45390944 -152.88751323 129.13115718 -158.56933594 130.76464844 C-163.66267986 132.24169469 -168.68405737 133.88267915 -173.703125 135.59375 C-181.15724941 138.1281523 -188.67657797 140.33932357 -196.25439453 142.47192383 C-206.12446262 145.25342199 -215.9671937 148.12862014 -225.578125 151.71875 C-230.74505244 153.646708 -235.99820004 155.11903092 -241.30859375 156.59765625 C-244.91733866 157.64585547 -248.46029092 158.81505375 -252.015625 160.03125 C-257.84107414 162.01977761 -263.71297673 163.74939096 -269.640625 165.40625 C-273.41459721 166.47881538 -277.18430656 167.56572586 -280.953125 168.65625 C-282.13986816 168.9970459 -283.32661133 169.3378418 -284.54931641 169.68896484 C-288.3593638 170.7963716 -292.15654834 171.94109101 -295.953125 173.09375 C-297.16444092 173.44083008 -298.37575684 173.78791016 -299.6237793 174.14550781 C-307.71482914 176.60235109 -307.71482914 176.60235109 -313.09179688 182.74487305 C-313.37603516 183.37562744 -313.66027344 184.00638184 -313.953125 184.65625 C-314.25283203 185.31471924 -314.55253906 185.97318848 -314.86132812 186.65161133 C-315.71718354 188.69547789 -316.47252562 190.75211468 -317.203125 192.84375 C-317.45835937 193.54177734 -317.71359375 194.23980469 -317.9765625 194.95898438 C-323.2866167 209.64547638 -323.71410068 229.79657824 -317.34375 244.29296875 C-315.56466264 247.33237703 -314.83533004 247.713446 -311.4375 249.36328125 C-308.55950945 250.11344201 -305.67716339 250.51679951 -302.73046875 250.8984375 C-297.54974529 251.57896078 -293.09433759 253.32036747 -288.328125 255.40625 C-287.13243896 255.92783691 -287.13243896 255.92783691 -285.91259766 256.45996094 C-267.52426254 264.65848579 -248.63427461 275.5880714 -234.953125 290.65625 C-234.953125 291.31625 -234.953125 291.97625 -234.953125 292.65625 C-236.74133667 292.44512573 -236.74133667 292.44512573 -238.56567383 292.22973633 C-251.28525975 290.80043916 -263.84658836 290.2916721 -276.640625 290.34375 C-277.6017923 290.34590515 -278.56295959 290.3480603 -279.55325317 290.35028076 C-294.53612948 290.40400008 -309.17843116 290.97934389 -323.953125 293.65625 C-325.0757373 293.85492676 -326.19834961 294.05360352 -327.35498047 294.25830078 C-357.05819579 299.64531239 -386.35239894 308.34678491 -413.953125 320.65625 C-415.06945312 321.15382813 -416.18578125 321.65140625 -417.3359375 322.1640625 C-438.15452029 331.59875366 -458.15171392 342.76683356 -476.97875977 355.72216797 C-480.53888774 358.15282297 -483.82144381 360.28986724 -487.953125 361.65625 C-478.02110765 340.7677092 -466.10113119 320.97640917 -450.20703125 304.0625 C-448.27348963 301.99826839 -446.45118616 299.88964397 -444.640625 297.71875 C-423.42714716 273.55895579 -392.06917403 253.49439225 -359.953125 248.65625 C-358.963125 248.65625 -357.973125 248.65625 -356.953125 248.65625 C-356.75976562 247.99238281 -356.56640625 247.32851563 -356.3671875 246.64453125 C-354.14386834 239.10505785 -354.14386834 239.10505785 -352.890625 236.15625 C-347.78576464 222.54328903 -349.12863991 209.18218324 -353.859375 195.82421875 C-354.953125 192.65625 -354.953125 192.65625 -354.953125 190.65625 C-355.9225 190.97078125 -356.891875 191.2853125 -357.890625 191.609375 C-365.48250002 194.04367423 -373.06525804 196.25925571 -380.81518555 198.13793945 C-385.82819689 199.35827184 -390.79910663 200.69666435 -395.765625 202.09375 C-402.5217012 203.9922528 -409.29486193 205.80626695 -416.08666992 207.57226562 C-422.19377576 209.17036394 -428.27452311 210.85490187 -434.35424805 212.55395508 C-445.8855095 215.77375725 -457.42973119 218.78816477 -469.08740234 221.51416016 C-475.35252057 222.99246888 -481.53255365 224.63803731 -487.703125 226.46875 C-501.43202955 230.52804053 -515.3918474 233.71667734 -529.30952454 237.05302429 C-536.87048649 238.86907163 -544.41266654 240.75714323 -551.953125 242.65625 C-600.1043171 254.75492085 -648.36679031 266.41809445 -696.953125 276.65625 C-696.953125 275.99625 -696.953125 275.33625 -696.953125 274.65625 C-665.0390232 261.43965883 -632.82975784 248.93306626 -600.50097656 236.76977539 C-590.40178131 232.96929487 -580.32635977 229.11103816 -570.26123047 225.22128296 C-551.23347613 217.86988926 -532.12913054 210.73534157 -513.00283813 203.64494324 C-503.35319051 200.06609312 -493.714445 196.45830801 -484.078125 192.84375 C-483.2361557 192.52804047 -482.3941864 192.21233093 -481.52670288 191.88705444 C-472.54560012 188.5187211 -463.57039118 185.1359875 -454.60766602 181.71899414 C-438.47104359 175.56730476 -422.27542756 169.57810632 -406.07791138 163.58889771 C-391.12806767 158.0607562 -376.18585315 152.51385761 -361.265625 146.90625 C-348.57975689 142.13857534 -335.88630023 137.3921691 -323.18301392 132.67108154 C-320.45923745 131.65852229 -317.73578367 130.64510033 -315.01245117 129.63134766 C-313.67125465 129.13210281 -313.67125465 129.13210281 -312.30296326 128.62277222 C-310.50360945 127.95297056 -308.70426251 127.28315045 -306.90492249 126.61331177 C-302.56841808 124.99950474 -298.23107299 123.38803981 -293.89160156 121.78222656 C-245.97196539 104.04816253 -198.48519038 85.20864013 -152.32617188 63.25683594 C-149.13973828 61.74480216 -145.94626632 60.24892322 -142.75 58.7578125 C-130.46960149 53.00070618 -118.5334571 46.76071344 -106.68261719 40.16796875 C-103.05273569 38.15757284 -99.40445749 36.18189726 -95.75634766 34.20483398 C-88.26010361 30.14019498 -80.80173115 26.01915498 -73.39331055 21.79638672 C-64.56463885 16.76448577 -55.69180476 11.83490267 -46.703125 7.09375 C-45.78732666 6.60519531 -44.87152832 6.11664063 -43.92797852 5.61328125 C-31.1870466 -1.04001969 -13.47738925 -8.85375936 0 0 Z " fill="#020202" transform="translate(879.953125,106.34375)"/>
<path d="M0 0 C0.34898849 9.42473005 -0.53299502 18.31602506 -2.02636719 27.58544922 C-2.37660095 29.75993977 -2.71292151 31.93623649 -3.046875 34.11328125 C-4.46513942 43.24984816 -5.96007363 52.23785928 -9 61 C-9.1340625 61.75023437 -9.268125 62.50046875 -9.40625 63.2734375 C-11.02169169 70.99429851 -14.9887298 74.21694805 -21.23828125 78.71484375 C-23.15895309 80.11595469 -25.03319787 81.56712933 -26.90625 83.03125 C-40.72064713 93.80498702 -54.85488317 104.16341576 -70 113 C-70.75764648 113.44311523 -71.51529297 113.88623047 -72.29589844 114.34277344 C-89.47472876 124.35317009 -106.62008436 134.01584153 -125.16162109 141.26806641 C-127.71731496 142.28559233 -130.22958565 143.39843277 -132.75 144.5 C-166.37665505 158.40507628 -203.62489969 166.52406595 -240.0625 166.25 C-241.19677933 166.24484879 -241.19677933 166.24484879 -242.35397339 166.23959351 C-263.75675913 166.12649677 -284.31253431 164.19809702 -305.25439453 159.59082031 C-307.58013645 159.09034944 -309.90360019 158.65376147 -312.24609375 158.2421875 C-318.7852351 156.80584431 -321.67240867 154.86604248 -325.3125 149.1875 C-326.25080406 147.42151298 -327.18815719 145.65432483 -328.07177734 143.86035156 C-329.01248051 141.97498646 -330.0181922 140.14115512 -331.05078125 138.3046875 C-343 116.88738612 -343 116.88738612 -343 111 C-335.96988235 111.68056029 -329.22528909 112.90341792 -322.33984375 114.45117188 C-305.73256139 117.96785083 -288.91285761 118.38088335 -272 118.3125 C-270.96487274 118.30934784 -269.92974548 118.30619568 -268.86325073 118.302948 C-229.74936931 118.12861317 -191.49284855 111.39013516 -155 97 C-154.15421387 96.66693848 -153.30842773 96.33387695 -152.43701172 95.99072266 C-148.76160157 94.52835202 -145.10547398 93.0287173 -141.46875 91.47265625 C-138.66393092 90.28187157 -135.85473154 89.18600856 -133 88.125 C-126.93647939 85.72442529 -121.26578989 82.51331282 -115.5390625 79.4140625 C-112.16647987 77.59338417 -108.74858215 75.89252224 -105.3046875 74.2109375 C-98.49185237 70.81902447 -91.99027334 66.96667603 -85.5 63 C-84.89526855 62.63205322 -84.29053711 62.26410645 -83.66748047 61.88500977 C-68.90991687 52.88975725 -54.75278695 43.09919664 -41.1171875 32.4765625 C-39 31 -39 31 -37 31 C-37 30.34 -37 29.68 -37 29 C-35.56640625 27.73828125 -35.56640625 27.73828125 -33.5625 26.3125 C-32.45455078 25.50619141 -32.45455078 25.50619141 -31.32421875 24.68359375 C-30.55722656 24.12800781 -29.79023437 23.57242188 -29 23 C-23.38951863 18.80554834 -18.01015841 14.36315926 -12.6875 9.8125 C-12.08856934 9.30122559 -11.48963867 8.78995117 -10.87255859 8.26318359 C-8.38417585 6.12198449 -5.9953596 3.9952173 -3.70703125 1.63671875 C-2 0 -2 0 0 0 Z " fill="#010101" transform="translate(728,658)"/>
<path d="M0 0 C67.15030491 -2.27756828 67.15030491 -2.27756828 84.68945312 12.1328125 C86.66478668 14.79221248 88.27081736 17.61408198 89.87695312 20.5078125 C90.34528564 21.334021 90.81361816 22.16022949 91.29614258 23.01147461 C105.68945312 48.81226221 105.68945312 48.81226221 105.68945312 54.1328125 C97.23784598 53.42227916 88.96043007 52.05590237 80.61132812 50.59375 C79.60585938 50.42101562 78.60039063 50.24828125 77.56445312 50.0703125 C76.23027344 49.83634766 76.23027344 49.83634766 74.86914062 49.59765625 C66.84373788 48.42440941 58.90081903 47.95918974 50.79492188 47.89453125 C49.77751923 47.8847374 48.76011658 47.87494354 47.71188354 47.86485291 C25.69638725 47.69655985 4.34670198 47.7855905 -17.31054688 52.1328125 C-18.44347168 52.35243652 -19.57639648 52.57206055 -20.74365234 52.79833984 C-48.32954286 58.23548077 -75.89167669 66.4051764 -101.25585938 78.68359375 C-103.53077462 79.7628694 -105.79342539 80.77114919 -108.11523438 81.73828125 C-117.14471277 85.5110286 -125.35381945 89.96904803 -133.65869141 95.13085938 C-135.91111673 96.49709549 -138.22742253 97.72302856 -140.56054688 98.9453125 C-165.96489904 112.61006062 -189.31601514 130.38057743 -211.52539062 148.66796875 C-213.13406833 149.98799969 -214.7529528 151.2955683 -216.37304688 152.6015625 C-222.18345572 157.289506 -227.73057348 162.17807805 -233.19335938 167.26171875 C-235.31054688 169.1328125 -235.31054688 169.1328125 -236.31054688 169.1328125 C-236.49815169 151.78789433 -233.44452703 135.01677501 -229.89697266 118.08349609 C-229.3846895 115.50587154 -228.96350302 112.94002197 -228.58789062 110.33984375 C-226.83071553 99.49660385 -221.76074129 94.74412248 -213.24267578 88.55957031 C-211.35981549 87.16919433 -209.55705564 85.71757489 -207.75976562 84.21875 C-197.73635381 75.88015376 -187.06459084 68.48960946 -176.31054688 61.1328125 C-175.68954102 60.70419922 -175.06853516 60.27558594 -174.42871094 59.83398438 C-168.59466091 55.80838768 -162.70267676 52.11629591 -156.43554688 48.8046875 C-154.09931293 47.55480234 -151.79606929 46.27765449 -149.49804688 44.9609375 C-128.9120063 33.20534444 -107.81085607 23.59911031 -85.31054688 16.1328125 C-84.28413086 15.78234863 -83.25771484 15.43188477 -82.20019531 15.07080078 C-55.51210282 6.0005293 -28.14387079 1.12907564 0 0 Z " fill="#010101" transform="translate(595.310546875,427.8671875)"/>
<path d="M0 0 C0.33 0.66 0.66 1.32 1 2 C0.24658203 3.93261719 0.24658203 3.93261719 -0.9921875 6.296875 C-1.44537354 7.16634766 -1.89855957 8.03582031 -2.36547852 8.93164062 C-2.86362061 9.86169922 -3.3617627 10.79175781 -3.875 11.75 C-4.38023193 12.70068359 -4.88546387 13.65136719 -5.40600586 14.63085938 C-12.20521191 27.2767619 -20.10868938 38.74946932 -29 50 C-30.77918612 52.33194297 -32.55756883 54.66446078 -34.33203125 57 C-36.41066181 59.49240947 -38.68822219 61.72282964 -41 64 C-41.79277344 64.82757812 -42.58554687 65.65515625 -43.40234375 66.5078125 C-70.76344558 94.75425045 -107.47314783 114.54672972 -147.30883789 115.29223633 C-159.67287385 115.3756481 -171.05383971 114.20301324 -183 111 C-184.01779541 110.72712158 -184.01779541 110.72712158 -185.05615234 110.44873047 C-195.3255997 107.57943919 -204.66276896 103.04561518 -214 98 C-215.07378906 97.42121094 -216.14757812 96.84242188 -217.25390625 96.24609375 C-227.72625597 90.36137051 -236.97556879 83.14366971 -245.796875 75.01953125 C-248.45746425 72.58065777 -251.20391271 70.28101858 -254 68 C-250.16643179 66.62189624 -246.71306529 67.32791134 -242.796875 67.9140625 C-231.31040951 69.43191125 -219.81906703 69.39695571 -208.25 69.375 C-207.12205017 69.37412384 -205.99410034 69.37324768 -204.83197021 69.37234497 C-176.82216852 69.30065218 -151.09108513 65.27220399 -124 58 C-122.92314941 57.7122168 -121.84629883 57.42443359 -120.73681641 57.12792969 C-77.10344503 45.30957341 -37.414882 25.10735502 0 0 Z " fill="#020201" transform="translate(693,786)"/>
<path d="M0 0 C1.0063147 -0.00108765 1.0063147 -0.00108765 2.03295898 -0.00219727 C10.8789215 -0.00111546 19.62888021 0.37533124 28.4375 1.1875 C28.1075 2.1775 27.7775 3.1675 27.4375 4.1875 C19.71810357 4.21071599 11.99871078 4.22846219 4.27928734 4.23931217 C0.69447975 4.24452078 -2.89030386 4.25158157 -6.47509766 4.26293945 C-9.9375062 4.27384037 -13.39989175 4.27979206 -16.86231613 4.28237724 C-18.81980905 4.28511189 -20.77729278 4.29291244 -22.73477173 4.30079651 C-24.53595963 4.30090981 -24.53595963 4.30090981 -26.37353516 4.30102539 C-27.95238998 4.30435631 -27.95238998 4.30435631 -29.56314087 4.30775452 C-32.63714692 4.18450715 -35.54196798 3.75723832 -38.5625 3.1875 C-38.5625 2.8575 -38.5625 2.5275 -38.5625 2.1875 C-25.70376522 0.6618874 -12.94210389 -0.01360576 0 0 Z " fill="#11110F" transform="translate(635.5625,471.8125)"/>
<path d="M0 0 C0 0.33 0 0.66 0 1 C-5.20554118 2.00889153 -10.34125375 2.32560879 -15.625 2.5625 C-17.00075195 2.6251001 -17.00075195 2.6251001 -18.40429688 2.68896484 C-32.29909113 3.27148103 -46.15100431 3.41522584 -60 2 C-60 1.67 -60 1.34 -60 1 C-50.03971334 0.19040026 -40.09948191 -0.27938813 -30.11230469 -0.55761719 C-27.73867147 -0.62532314 -25.36549868 -0.70314844 -22.9921875 -0.78125 C-15.24540021 -1.01466001 -7.70223497 -1.03624446 0 0 Z " fill="#222120" transform="translate(521,856)"/>
<path d="M0 0 C0.9269165 -0.00064453 1.85383301 -0.00128906 2.80883789 -0.00195312 C8.46138344 0.04323848 13.95486492 0.47442331 19.5625 1.1875 C19.5625 1.5175 19.5625 1.8475 19.5625 2.1875 C10.51147132 3.20566177 1.46135503 3.50412801 -7.63598633 3.74511719 C-10.13062739 3.81265235 -12.62481672 3.89045832 -15.11914062 3.96875 C-16.7291494 4.01364454 -18.33917511 4.05793627 -19.94921875 4.1015625 C-20.6827507 4.12546051 -21.41628265 4.14935852 -22.17204285 4.17398071 C-27.03288753 4.29034282 -31.62453696 3.88856491 -36.4375 3.1875 C-36.4375 2.8575 -36.4375 2.5275 -36.4375 2.1875 C-24.29576972 0.97477837 -12.20940862 -0.00804773 0 0 Z " fill="#131211" transform="translate(606.4375,392.8125)"/>
<path d="M0 0 C0.66 0.66 1.32 1.32 2 2 C-0.41473837 4.10638795 -2.83212755 6.20971074 -5.25 8.3125 C-5.93191406 8.90740234 -6.61382812 9.50230469 -7.31640625 10.11523438 C-7.98027344 10.69208984 -8.64414062 11.26894531 -9.328125 11.86328125 C-9.9355957 12.39219971 -10.54306641 12.92111816 -11.16894531 13.46606445 C-13 15 -13 15 -15.14331055 16.39282227 C-17.50527975 18.43737759 -17.77887497 19.81402899 -18.37890625 22.8515625 C-18.57806641 23.78484375 -18.77722656 24.718125 -18.98242188 25.6796875 C-19.17384766 26.65164063 -19.36527344 27.62359375 -19.5625 28.625 C-19.94765187 30.55711501 -20.34420605 32.48700357 -20.75390625 34.4140625 C-20.92220947 35.2695166 -21.0905127 36.1249707 -21.26391602 37.00634766 C-21.50682373 37.66425293 -21.74973145 38.3221582 -22 39 C-23.485 39.495 -23.485 39.495 -25 40 C-24.54212017 37.85406985 -24.08367066 35.70826126 -23.625 33.5625 C-23.36976563 32.36753906 -23.11453125 31.17257812 -22.8515625 29.94140625 C-22.70912109 29.31089355 -22.56667969 28.68038086 -22.41992188 28.03076172 C-22.12605146 26.60959072 -21.88690579 25.17651057 -21.68945312 23.73876953 C-20.67533921 17.36299781 -18.31208665 14.59885927 -13.25 10.75 C-12.6415625 10.26015625 -12.033125 9.7703125 -11.40625 9.265625 C-10.20310031 8.29899192 -8.99293171 7.34102021 -7.77539062 6.39257812 C-5.13354519 4.32037153 -2.57015973 2.1601956 0 0 Z " fill="#121313" transform="translate(390,510)"/>
<path d="M0 0 C1.29292969 0.10183594 2.58585938 0.20367187 3.91796875 0.30859375 C4.87316406 0.39238281 5.82835937 0.47617187 6.8125 0.5625 C6.8125 0.8925 6.8125 1.2225 6.8125 1.5625 C1.02823089 2.11906198 -4.68507499 2.63439734 -10.5 2.5 C-14.74937338 2.45293416 -18.10293703 3.31636214 -22.1875 4.5625 C-29.01416662 5.92436361 -35.33763705 7.15549138 -42.1875 5.5625 C-42.1875 5.2325 -42.1875 4.9025 -42.1875 4.5625 C-38.58468617 3.90897055 -34.98003712 3.26614199 -31.375 2.625 C-30.37017578 2.44259766 -29.36535156 2.26019531 -28.33007812 2.07226562 C-18.8259508 0.3914714 -9.64431884 -0.7963199 0 0 Z " fill="#1F1F1E" transform="translate(616.1875,508.4375)"/>
<path d="M0 0 C0.93030029 0.18208008 1.86060059 0.36416016 2.8190918 0.55175781 C10.04905096 2.01265936 17.02990237 3.88137133 24 6.3125 C24 7.3025 24 8.2925 24 9.3125 C23.29907227 9.13291748 22.59814453 8.95333496 21.87597656 8.76831055 C13.8650307 6.73805857 5.82103128 4.89957528 -2.25 3.125 C-3.48363281 2.85236328 -4.71726562 2.57972656 -5.98828125 2.29882812 C-8.99186575 1.6352455 -11.99577176 0.97316095 -15 0.3125 C-15 -0.0175 -15 -0.3475 -15 -0.6875 C-9.85625102 -2.34850227 -5.14506207 -1.03933268 0 0 Z " fill="#171615" transform="translate(690,512.6875)"/>
<path d="M0 0 C5.4693721 0.37719808 10.69781237 1.31914713 16.0625 2.4375 C23.99774818 4.07927549 31.95085188 5.10094929 40 6 C40 6.33 40 6.66 40 7 C31.25049518 8.37157416 23.63416969 7.42469118 15 5.6875 C13.78699219 5.46126953 12.57398438 5.23503906 11.32421875 5.00195312 C2.42740643 3.28493762 2.42740643 3.28493762 -1 1 C-0.67 0.67 -0.34 0.34 0 0 Z " fill="#1B1B1A" transform="translate(390,735)"/>
<path d="M0 0 C3 1 3 1 4.82421875 4.30859375 C5.45604983 5.67999973 6.07673453 7.05658349 6.6875 8.4375 C7.00783203 9.13166016 7.32816406 9.82582031 7.65820312 10.54101562 C10 15.69896055 10 15.69896055 10 18 C3.2142064 17.45136137 -3.35009036 16.45732062 -10 15 C-8 13 -8 13 -5.50390625 12.98828125 C-4.53324219 13.09527344 -3.56257812 13.20226562 -2.5625 13.3125 C-1.11037109 13.46138672 -1.11037109 13.46138672 0.37109375 13.61328125 C3 14 3 14 6 15 C5.73445312 14.41992188 5.46890625 13.83984375 5.1953125 13.2421875 C3.22438666 8.88313255 1.40950748 4.58089932 0 0 Z " fill="#171816" transform="translate(691,464)"/>
<path d="M0 0 C-0.33 0.66 -0.66 1.32 -1 2 C-2.77490234 2.50244141 -2.77490234 2.50244141 -5.0859375 2.8515625 C-6.35159546 3.04552612 -6.35159546 3.04552612 -7.64282227 3.2434082 C-8.54444092 3.3693335 -9.44605957 3.49525879 -10.375 3.625 C-11.73806274 3.82065552 -11.73806274 3.82065552 -13.12866211 4.02026367 C-30.00499229 6.33000514 -30.00499229 6.33000514 -35 3 C-34.20827393 2.91435791 -33.41654785 2.82871582 -32.60083008 2.74047852 C-29.00446415 2.35013642 -25.4084829 1.95635447 -21.8125 1.5625 C-20.56662109 1.42779297 -19.32074219 1.29308594 -18.03710938 1.15429688 C-16.83505859 1.02216797 -15.63300781 0.89003906 -14.39453125 0.75390625 C-13.28956299 0.63345947 -12.18459473 0.5130127 -11.04614258 0.38891602 C-8.0397788 0.05356479 -8.0397788 0.05356479 -5.2878418 -0.60961914 C-3 -1 -3 -1 0 0 Z " fill="#111110" transform="translate(515,773)"/>
<path d="M0 0 C3.00355568 1.66029884 6.00160781 3.3303972 9 5 C9.6482373 5.35900391 10.29647461 5.71800781 10.96435547 6.08789062 C13.12390093 7.2844961 15.28082764 8.48572525 17.4375 9.6875 C18.50291016 10.27615845 18.50291016 10.27615845 19.58984375 10.87670898 C24.77282352 13.77282352 24.77282352 13.77282352 27 16 C24 17 24 17 22.11816406 16.27490234 C21.42432617 15.88254395 20.73048828 15.49018555 20.015625 15.0859375 C19.24476563 14.65410156 18.47390625 14.22226562 17.6796875 13.77734375 C16.87789063 13.31457031 16.07609375 12.85179687 15.25 12.375 C14.46367187 11.93542969 13.67734375 11.49585938 12.8671875 11.04296875 C8.01731237 8.29578035 3.47869627 5.31710927 -1 2 C-0.67 1.34 -0.34 0.68 0 0 Z " fill="#161615" transform="translate(464,872)"/>
<path d="M0 0 C-2.16066852 2.16066852 -3.31339859 2.58196722 -6.17578125 3.47265625 C-7.00400391 3.73240234 -7.83222656 3.99214844 -8.68554688 4.25976562 C-9.98588867 4.65711914 -9.98588867 4.65711914 -11.3125 5.0625 C-12.16779297 5.33126953 -13.02308594 5.60003906 -13.90429688 5.87695312 C-17.90979426 7.12110839 -21.85458922 8.30767366 -26 9 C-26 8.01 -26 7.02 -26 6 C-22.42211911 4.79561349 -18.83698135 3.61447826 -15.25 2.4375 C-14.23421875 2.09525391 -13.2184375 1.75300781 -12.171875 1.40039062 C-11.1921875 1.08134766 -10.2125 0.76230469 -9.203125 0.43359375 C-8.30239258 0.13509521 -7.40166016 -0.16340332 -6.47363281 -0.47094727 C-3.88194396 -1.02524945 -2.47168427 -0.87013375 0 0 Z " fill="#1B1B19" transform="translate(589,804)"/>
<path d="M0 0 C-0.33 0.99 -0.66 1.98 -1 3 C-22.78 2.505 -22.78 2.505 -45 2 C-45 1.67 -45 1.34 -45 1 C-41.00231472 0.85413589 -37.00451542 0.71193562 -33.0065918 0.57275391 C-30.9984704 0.50214386 -28.99044398 0.42884832 -26.98242188 0.35546875 C-17.98108476 0.04431142 -9.00612834 -0.05818226 0 0 Z " fill="#494844" transform="translate(664,473)"/>
<path d="M0 0 C1.44149414 0.14308594 1.44149414 0.14308594 2.91210938 0.2890625 C5.25432923 0.5221192 7.59606955 0.75916349 9.9375 1 C9.9375 1.33 9.9375 1.66 9.9375 2 C-1.37296688 3.12647988 -11.82628382 2.68265119 -23.0625 1 C-16.70786538 -3.23642308 -7.29333955 -0.75115814 0 0 Z " fill="#1C1B1A" transform="translate(463.0625,820)"/>
<path d="M0 0 C0.33 0.66 0.66 1.32 1 2 C-0.07518118 4.44332726 -1.19808566 6.76754523 -2.4375 9.125 C-2.77587891 9.78371094 -3.11425781 10.44242188 -3.46289062 11.12109375 C-4.30149926 12.75106547 -5.14984811 14.37601909 -6 16 C-6.66 15.34 -7.32 14.68 -8 14 C-7.9690625 12.7625 -7.9690625 12.7625 -7.9375 11.5 C-7.958125 10.675 -7.97875 9.85 -8 9 C-8.99 8.34 -9.98 7.68 -11 7 C-7.37 4.69 -3.74 2.38 0 0 Z " fill="#1C1E1E" transform="translate(693,786)"/>
<path d="M0 0 C-3.58330445 4.20309959 -8.31865346 4.61600431 -13.5 5.8125 C-14.94439453 6.17504883 -14.94439453 6.17504883 -16.41796875 6.54492188 C-17.80435547 6.87266602 -17.80435547 6.87266602 -19.21875 7.20703125 C-20.06373047 7.4078833 -20.90871094 7.60873535 -21.77929688 7.81567383 C-24 8 -24 8 -27 6 C-25.77023437 5.66226563 -24.54046875 5.32453125 -23.2734375 4.9765625 C-21.64060198 4.52612511 -20.00779076 4.07559962 -18.375 3.625 C-17.56675781 3.40328125 -16.75851562 3.1815625 -15.92578125 2.953125 C-12.43220066 1.9874198 -9.0136341 1.00492081 -5.6015625 -0.2265625 C-3 -1 -3 -1 0 0 Z " fill="#191918" transform="translate(544,730)"/>
<path d="M0 0 C0.99 0 1.98 0 3 0 C6.96 7.26 10.92 14.52 15 22 C14.34 22.66 13.68 23.32 13 24 C11.38874818 21.31668947 9.78733701 18.62762926 8.1875 15.9375 C7.73568359 15.18533203 7.28386719 14.43316406 6.81835938 13.65820312 C4.17808583 9.20635503 1.92160125 4.80719514 0 0 Z " fill="#121210" transform="translate(392,786)"/>
<path d="M0 0 C0.66 0.33 1.32 0.66 2 1 C1.41057597 8.07308832 0.53345622 15.33073063 -2 22 C-2.99 22.33 -3.98 22.66 -5 23 C-3.36271632 15.32659713 -1.71604609 7.65620565 0 0 Z " fill="#202020" transform="translate(370,527)"/>
<path d="M0 0 C0.99 0.33 1.98 0.66 3 1 C3.66 2.65 4.32 4.3 5 6 C0.545 8.97 0.545 8.97 -4 12 C-4.66 11.67 -5.32 11.34 -6 11 C-4.02 7.37 -2.04 3.74 0 0 Z " fill="#171718" transform="translate(398,456)"/>
<path d="M0 0 C0.33 0.66 0.66 1.32 1 2 C-2.43354082 2.7285295 -5.87216918 3.42930362 -9.3125 4.125 C-10.28896484 4.33253906 -11.26542969 4.54007812 -12.27148438 4.75390625 C-13.20927734 4.94082031 -14.14707031 5.12773437 -15.11328125 5.3203125 C-16.40939331 5.58739014 -16.40939331 5.58739014 -17.73168945 5.85986328 C-20 6 -20 6 -23 4 C-20.29352533 3.32488828 -17.58522815 2.65972659 -14.875 2 C-14.11445312 1.80921875 -13.35390625 1.6184375 -12.5703125 1.421875 C-8.28411166 0.3872748 -4.44599099 -0.2272711 0 0 Z " fill="#1F2020" transform="translate(550,399)"/>
<path d="M0 0 C2.97 0.33 5.94 0.66 9 1 C9.061875 1.70125 9.12375 2.4025 9.1875 3.125 C10.29201202 7.0332733 12.28230992 9.00357248 15 12 C10.6811346 12 8.78127223 9.38440717 5.8125 6.5625 C5.25369141 6.04623047 4.69488281 5.52996094 4.11914062 4.99804688 C2.72081232 3.69191604 1.357217 2.34880015 0 1 C0 0.67 0 0.34 0 0 Z " fill="#1F1F1E" transform="translate(439,853)"/>
<path d="M0 0 C0.99 0.33 1.98 0.66 3 1 C-0.45863013 3.79954453 -3.97127636 6.49776268 -7.5625 9.125 C-8.49191406 9.80820312 -9.42132812 10.49140625 -10.37890625 11.1953125 C-12.54756923 12.68849029 -14.6119018 13.90990341 -17 15 C-17 14.01 -17 13.02 -17 12 C-15.54711914 10.66552734 -15.54711914 10.66552734 -13.53515625 9.3359375 C-12.81779297 8.85382812 -12.10042969 8.37171875 -11.36132812 7.875 C-10.60271484 7.38 -9.84410156 6.885 -9.0625 6.375 C-7.5738277 5.38339932 -6.08552678 4.3912408 -4.59765625 3.3984375 C-3.93258057 2.96192871 -3.26750488 2.52541992 -2.58227539 2.07568359 C-1.03056021 1.09296823 -1.03056021 1.09296823 0 0 Z " fill="#1F1F1D" transform="translate(654,672)"/>
<path d="M0 0 C0.5775 0.226875 1.155 0.45375 1.75 0.6875 C-4.1694965 5.46676562 -10.12647362 10.17182691 -16.25 14.6875 C-16.25 11.6875 -16.25 11.6875 -14.203125 9.53125 C-13.31109375 8.7578125 -12.4190625 7.984375 -11.5 7.1875 C-10.61828125 6.4140625 -9.7365625 5.640625 -8.828125 4.84375 C-7.97734375 4.1321875 -7.1265625 3.420625 -6.25 2.6875 C-5.56421875 2.0790625 -4.8784375 1.470625 -4.171875 0.84375 C-2.25 -0.3125 -2.25 -0.3125 0 0 Z M-19.25 13.6875 C-17.25 14.6875 -17.25 14.6875 -17.25 14.6875 Z " fill="#171716" transform="translate(415.25,593.3125)"/>
<path d="M0 0 C0.66 0.66 1.32 1.32 2 2 C-1.60144435 2.56092819 -5.20632564 3.09540625 -8.8125 3.625 C-10.34874023 3.86476563 -10.34874023 3.86476563 -11.91601562 4.109375 C-13.39038086 4.32207031 -13.39038086 4.32207031 -14.89453125 4.5390625 C-15.80050049 4.67521973 -16.70646973 4.81137695 -17.63989258 4.95166016 C-20 5 -20 5 -23 3 C-15.37341696 1.21873457 -7.88689187 -0.46393482 0 0 Z " fill="#111110" transform="translate(596,475)"/>
<path d="M0 0 C0 0.33 0 0.66 0 1 C-3.1427539 1.54063524 -6.28944113 2.05374525 -9.4375 2.5625 C-10.75524414 2.78969727 -10.75524414 2.78969727 -12.09960938 3.02148438 C-18.02472064 3.96163118 -23.06635242 3.91147587 -29 3 C-29 2.67 -29 2.34 -29 2 C-25.48143613 1.46301053 -21.9599454 0.94835497 -18.4375 0.4375 C-16.9515332 0.21030273 -16.9515332 0.21030273 -15.43554688 -0.02148438 C-9.99276503 -0.79902464 -5.39233508 -1.14199523 0 0 Z " fill="#1C1C1A" transform="translate(540,818)"/>
<path d="M0 0 C0 0.99 0 1.98 0 3 C-2.16015625 4.90234375 -2.16015625 4.90234375 -5.0625 6.9375 C-6.06023437 7.63746094 -7.05796875 8.33742188 -8.0859375 9.05859375 C-11.32194014 11.21448291 -14.5705543 13.17096229 -18 15 C-18 14.01 -18 13.02 -18 12 C-15.59427207 10.17425076 -13.23322838 8.54348292 -10.6875 6.9375 C-9.99720703 6.49083984 -9.30691406 6.04417969 -8.59570312 5.58398438 C-7.30603789 4.75037467 -6.01358126 3.92105697 -4.7175293 3.09741211 C-3.13232097 2.08454624 -1.5652241 1.04348274 0 0 Z " fill="#191919" transform="translate(431,538)"/>
<path d="M0 0 C0.99 0.33 1.98 0.66 3 1 C-0.73297751 4.12135972 -4.65169793 6.74516932 -8.8125 9.25 C-9.40998047 9.61351562 -10.00746094 9.97703125 -10.62304688 10.3515625 C-12.08014796 11.23747996 -13.5398102 12.11918273 -15 13 C-15.66 12.34 -16.32 11.68 -17 11 C-16.10796875 10.45730469 -15.2159375 9.91460938 -14.296875 9.35546875 C-13.11451896 8.63291783 -11.93223087 7.9102557 -10.75 7.1875 C-10.16347656 6.83107422 -9.57695313 6.47464844 -8.97265625 6.10742188 C-6.45767739 4.56735055 -4.05249444 3.04285822 -1.765625 1.17578125 C-1.18296875 0.78777344 -0.6003125 0.39976562 0 0 Z " fill="#222221" transform="translate(620,873)"/>
<path d="M0 0 C7.23589973 0.60299164 13.99370876 2.1150587 21 4 C17.72764638 6.01144672 15.9596726 6.12425405 12.25 5.25 C11.38117188 5.05148437 10.51234375 4.85296875 9.6171875 4.6484375 C8.75351562 4.43445313 7.88984375 4.22046875 7 4 C6.19820313 3.80664062 5.39640625 3.61328125 4.5703125 3.4140625 C2.70991347 2.95723854 0.85435785 2.48075944 -1 2 C-0.67 1.34 -0.34 0.68 0 0 Z " fill="#191918" transform="translate(411,812)"/>
<path d="M0 0 C-9.405 2.97 -9.405 2.97 -19 6 C-19.66 5.01 -20.32 4.02 -21 3 C-18.06860089 2.10358859 -15.12928218 1.23666618 -12.1875 0.375 C-11.35412109 0.11976563 -10.52074219 -0.13546875 -9.66210938 -0.3984375 C-8.45844727 -0.74648438 -8.45844727 -0.74648438 -7.23046875 -1.1015625 C-6.49207764 -1.32150879 -5.75368652 -1.54145508 -4.99291992 -1.76806641 C-3 -2 -3 -2 0 0 Z " fill="#222120" transform="translate(565,518)"/>
<path d="M0 0 C-2.28185979 2.6858405 -3.73875274 3.40853749 -7.23046875 3.73046875 C-8.03291016 3.81103516 -8.83535156 3.89160156 -9.66210938 3.97460938 C-10.91217773 4.07999023 -10.91217773 4.07999023 -12.1875 4.1875 C-13.03248047 4.26935547 -13.87746094 4.35121094 -14.74804688 4.43554688 C-16.83092268 4.63559709 -18.91535003 4.81937284 -21 5 C-21 4.01 -21 3.02 -21 2 C-18.81347261 1.66034526 -16.62571975 1.32857523 -14.4375 1 C-13.21933594 0.814375 -12.00117188 0.62875 -10.74609375 0.4375 C-7.12372152 0.01444923 -3.64287954 -0.07501425 0 0 Z " fill="#161514" transform="translate(504,739)"/>
<path d="M0 0 C2.16461294 2.03391933 3.75455268 4.01858932 5.26171875 6.57421875 C5.65810547 7.24130859 6.05449219 7.90839844 6.46289062 8.59570312 C6.86701172 9.28599609 7.27113281 9.97628906 7.6875 10.6875 C8.10322266 11.38939453 8.51894531 12.09128906 8.94726562 12.81445312 C9.9688612 14.54059738 10.98497284 16.26998515 12 18 C11.34 18.66 10.68 19.32 10 20 C8.98868775 18.59138651 7.99133233 17.17274547 7 15.75 C6.1646875 14.56664062 6.1646875 14.56664062 5.3125 13.359375 C4 11 4 11 4 7 C3.34 7 2.68 7 2 7 C0 4 0 4 0 0 Z " fill="#232323" transform="translate(678,439)"/>
<path d="M0 0 C8.91 0.66 17.82 1.32 27 2 C27 2.33 27 2.66 27 3 C7.99544419 4.33257403 7.99544419 4.33257403 0 3 C0 2.01 0 1.02 0 0 Z " fill="#0E0D0C" transform="translate(448,854)"/>
<path d="M0 0 C-3.25552164 2.17034776 -6.33350438 3.39034121 -10 4.75 C-10.94359375 5.11931641 -10.94359375 5.11931641 -11.90625 5.49609375 C-13.75 6.171875 -13.75 6.171875 -17 7 C-17.99 6.34 -18.98 5.68 -20 5 C-17.42138975 3.96555751 -14.83825365 2.94727716 -12.25 1.9375 C-11.15558594 1.49567383 -11.15558594 1.49567383 -10.0390625 1.04492188 C-8.97558594 0.6340332 -8.97558594 0.6340332 -7.890625 0.21484375 C-7.24125977 -0.04176025 -6.59189453 -0.29836426 -5.92285156 -0.56274414 C-3.63367214 -1.08330284 -2.20743336 -0.72364304 0 0 Z " fill="#1D1D1C" transform="translate(597,889)"/>
<path d="M0 0 C-3.87051802 2.58034534 -5.41529303 1.95229447 -9.9375 1.25 C-11.16339844 1.06953125 -12.38929688 0.8890625 -13.65234375 0.703125 C-16.49168067 0.10676485 -18.52803243 -0.53788384 -21 -2 C-15.34899438 -4.82550281 -5.90612851 -1.27000258 0 0 Z " fill="#1E1E1D" transform="translate(531,898)"/>
<path d="M0 0 C1.2375 0.28359375 2.475 0.5671875 3.75 0.859375 C4.9875 1.13265625 6.225 1.4059375 7.5 1.6875 C10.75 2.609375 10.75 2.609375 13.75 4.609375 C9.35155678 5.98281885 5.82495445 4.85245002 1.5 3.671875 C0.75492188 3.47658203 0.00984375 3.28128906 -0.7578125 3.08007812 C-2.59079386 2.59833302 -4.42071818 2.10498275 -6.25 1.609375 C-3.25 -0.390625 -3.25 -0.390625 0 0 Z " fill="#191918" transform="translate(664.25,434.390625)"/>
<path d="M0 0 C5.61 0.33 11.22 0.66 17 1 C17 1.33 17 1.66 17 2 C6.69339617 3.32378398 -3.63223764 3.09139066 -14 3 C-14 2.67 -14 2.34 -14 2 C-9.38 1.67 -4.76 1.34 0 1 C0 0.67 0 0.34 0 0 Z " fill="#343432" transform="translate(609,393)"/>
<path d="M0 0 C1.73017508 0.45451184 3.45909877 0.91378857 5.1875 1.375 C6.15042969 1.63023437 7.11335937 1.88546875 8.10546875 2.1484375 C10.82210207 2.94766296 13.39137175 3.9031362 16 5 C15.67 5.66 15.34 6.32 15 7 C13.06213915 6.52229477 11.12472326 6.04278429 9.1875 5.5625 C8.10855469 5.29566406 7.02960937 5.02882813 5.91796875 4.75390625 C3.9259157 4.23922588 1.95188476 3.65062825 0 3 C0 2.01 0 1.02 0 0 Z " fill="#1E1D1A" transform="translate(699,515)"/>
<path d="M0 0 C6.28260706 -0.23268915 11.88019467 0.59545452 18 2 C14.14763991 4.56824006 11.63558834 3.82735049 7.3125 3.125 C6.2596582 2.96837891 6.2596582 2.96837891 5.18554688 2.80859375 C3.45541171 2.54966196 1.72745882 2.27622343 0 2 C0 1.34 0 0.68 0 0 Z " fill="#20201E" transform="translate(663,474)"/>
<path d="M0 0 C0 0.66 0 1.32 0 2 C1.65 2 3.3 2 5 2 C5 2.33 5 2.66 5 3 C-11.8929385 2.03644647 -11.8929385 2.03644647 -19 1 C-19 0.67 -19 0.34 -19 0 C-12.46837378 -1.10914408 -6.56492112 -0.78441153 0 0 Z " fill="#242321" transform="translate(668,509)"/>
<path d="M0 0 C-3.00609722 2.00406482 -5.59242695 3.03076258 -9 4.1875 C-10.051875 4.55230469 -11.10375 4.91710937 -12.1875 5.29296875 C-15 6 -15 6 -18 5 C-15.11550348 2.6229612 -12.57662226 1.31862494 -9 0.25 C-8.154375 -0.01296875 -7.30875 -0.2759375 -6.4375 -0.546875 C-3.8907775 -1.02030418 -2.4249914 -0.83078409 0 0 Z " fill="#191919" transform="translate(513,409)"/>
<path d="M0 0 C-2.91537441 0.38991633 -5.83121335 0.76239 -8.75 1.125 C-9.575 1.23714844 -10.4 1.34929687 -11.25 1.46484375 C-12.04921875 1.56152344 -12.8484375 1.65820312 -13.671875 1.7578125 C-14.4050293 1.8520752 -15.13818359 1.94633789 -15.89355469 2.04345703 C-18.39473847 1.99185635 -19.86305373 1.25429455 -22 0 C-6.43556701 -3.57216495 -6.43556701 -3.57216495 0 0 Z " fill="#212120" transform="translate(573,398)"/>
<path d="M0 0 C0.51046875 0.37898437 1.0209375 0.75796875 1.546875 1.1484375 C-0.69716202 2.04245225 -2.94602633 2.91359039 -5.203125 3.7734375 C-5.83734375 4.02867187 -6.4715625 4.28390625 -7.125 4.546875 C-11.90407938 6.33902977 -11.90407938 6.33902977 -14.90625 5.296875 C-15.41671875 4.91789063 -15.9271875 4.53890625 -16.453125 4.1484375 C-14.20908798 3.25442275 -11.96022367 2.38328461 -9.703125 1.5234375 C-9.06890625 1.26820313 -8.4346875 1.01296875 -7.78125 0.75 C-3.00217062 -1.04215477 -3.00217062 -1.04215477 0 0 Z " fill="#1F1F1D" transform="translate(562.453125,723.8515625)"/>
<path d="M0 0 C0.66 0.66 1.32 1.32 2 2 C0.07063642 3.842617 -1.86755967 5.67395452 -3.8125 7.5 C-4.63331055 8.28697266 -4.63331055 8.28697266 -5.47070312 9.08984375 C-9.66015625 13 -9.66015625 13 -13 13 C-9.0580583 8.11950075 -4.88049925 3.9419417 0 0 Z " fill="#212122" transform="translate(376,579)"/>
<path d="M0 0 C0 0.33 0 0.66 0 1 C-5.56483842 2.20320831 -11.33009615 2.52515593 -17 2 C-17.99 1.34 -18.98 0.68 -20 0 C-13.16920852 -1.18225237 -6.87368733 -0.74464946 0 0 Z " fill="#272726" transform="translate(500,776)"/>
<path d="M0 0 C0.66 0.66 1.32 1.32 2 2 C0.39805929 2.98280415 -1.20663742 3.96111717 -2.8125 4.9375 C-4.15248047 5.75541016 -4.15248047 5.75541016 -5.51953125 6.58984375 C-8 8 -8 8 -11 9 C-11.66 8.34 -12.32 7.68 -13 7 C-8.71 4.69 -4.42 2.38 0 0 Z " fill="#20201F" transform="translate(663,805)"/>
<path d="M0 0 C0.66 0.66 1.32 1.32 2 2 C-0.1217363 3.33878572 -2.24705188 4.67115476 -4.375 6 C-4.97828125 6.3815625 -5.5815625 6.763125 -6.203125 7.15625 C-10.7734375 10 -10.7734375 10 -13 10 C-11.63603413 5.90810238 -9.65151017 5.38452673 -5.9375 3.3125 C-4.83277344 2.68988281 -3.72804688 2.06726563 -2.58984375 1.42578125 C-1.73519531 0.95527344 -0.88054688 0.48476563 0 0 Z " fill="#1D1D1D" transform="translate(642,721)"/>
<path d="M0 0 C1.26328125 0.19464844 2.5265625 0.38929688 3.828125 0.58984375 C4.79234375 0.74582031 5.7565625 0.90179688 6.75 1.0625 C4.75 3.0625 4.75 3.0625 2.0703125 3.109375 C0.48863281 2.96242188 0.48863281 2.96242188 -1.125 2.8125 C-2.69894531 2.68101562 -2.69894531 2.68101562 -4.3046875 2.546875 C-7.04181146 2.0967379 -8.88052329 1.45900318 -11.25 0.0625 C-7.35939581 -1.3424404 -4.01907638 -0.63263239 0 0 Z " fill="#181816" transform="translate(652.25,431.9375)"/>
<path d="M0 0 C1.43838552 0.79005662 2.87567415 1.58211045 4.3125 2.375 C5.11300781 2.81585937 5.91351563 3.25671875 6.73828125 3.7109375 C8.53527943 4.73513335 10.27900708 5.85267138 12 7 C11.67 7.99 11.34 8.98 11 10 C7.04 7.36 3.08 4.72 -1 2 C-0.67 1.34 -0.34 0.68 0 0 Z " fill="#212121" transform="translate(464,872)"/>
<path d="M0 0 C0.99 0.33 1.98 0.66 3 1 C-1.62 4.3 -6.24 7.6 -11 11 C-11 10.01 -11 9.02 -11 8 C-8.69921875 5.921875 -8.69921875 5.921875 -5.6875 3.75 C-4.70136719 3.02296875 -3.71523438 2.2959375 -2.69921875 1.546875 C-1.36310547 0.78117188 -1.36310547 0.78117188 0 0 Z " fill="#272827" transform="translate(693,744)"/>
<path d="M0 0 C3.3 0.33 6.6 0.66 10 1 C10 1.33 10 1.66 10 2 C4.98391475 3.0176403 0.21391694 3.11856434 -4.875 3.0625 C-5.65875 3.05798828 -6.4425 3.05347656 -7.25 3.04882812 C-9.16670014 3.03714093 -11.08336048 3.01920908 -13 3 C-13 2.67 -13 2.34 -13 2 C-8.71 2 -4.42 2 0 2 C0 1.34 0 0.68 0 0 Z " fill="#212120" transform="translate(511,855)"/>
<path d="M0 0 C-1.4258086 3.45195767 -3.09746334 5.1014256 -6.125 7.25 C-7.21167969 8.03117188 -7.21167969 8.03117188 -8.3203125 8.828125 C-8.87460937 9.21484375 -9.42890625 9.6015625 -10 10 C-10.66 9.34 -11.32 8.68 -12 8 C-10.37982158 6.66081194 -8.75370657 5.3288031 -7.125 4 C-6.22007812 3.2575 -5.31515625 2.515 -4.3828125 1.75 C-2 0 -2 0 0 0 Z " fill="#1A1A19" transform="translate(687,648)"/>
<path d="M0 0 C0.33 0.99 0.66 1.98 1 3 C-2.82042691 7.1842771 -5.32976351 9.64994369 -11 11 C-7.6381774 6.74828319 -4.25171681 3.3618226 0 0 Z " fill="#212121" transform="translate(395,608)"/>
<path d="M0 0 C0 0.33 0 0.66 0 1 C-5.38027025 2.19088986 -10.45291384 3.2919519 -16 3 C-16.33 2.34 -16.66 1.68 -17 1 C-10.97767819 -0.46619907 -6.09632423 -1.32528788 0 0 Z " fill="#1C1C1B" transform="translate(568,432)"/>
<path d="M0 0 C1.48754006 0.73325207 2.96486192 1.48726078 4.4375 2.25 C5.67306641 2.87648438 5.67306641 2.87648438 6.93359375 3.515625 C9 5 9 5 9.78515625 7.171875 C9.85605469 7.77515625 9.92695312 8.3784375 10 9 C7.0280615 7.87548273 4.66559313 6.77706209 2 5 C2 4.34 2 3.68 2 3 C1.01 2.67 0.02 2.34 -1 2 C-0.67 1.34 -0.34 0.68 0 0 Z " fill="#151515" transform="translate(616,375)"/>
<path d="M0 0 C2.6015625 0.0234375 2.6015625 0.0234375 5.625 0.375 C6.62789062 0.48585938 7.63078125 0.59671875 8.6640625 0.7109375 C9.82035156 0.85402344 9.82035156 0.85402344 11 1 C11.33 1.99 11.66 2.98 12 4 C2.58997722 3.03644647 2.58997722 3.03644647 -2 2 C-1.34 1.34 -0.68 0.68 0 0 Z " fill="#2B2B2A" transform="translate(683,477)"/>
<path d="M0 0 C0.66 0.33 1.32 0.66 2 1 C2 1.99 2 2.98 2 4 C-4.93 5.485 -4.93 5.485 -12 7 C-12 6.34 -12 5.68 -12 5 C-10.04578965 4.13644222 -8.08648653 3.28440066 -6.125 2.4375 C-5.03445312 1.96183594 -3.94390625 1.48617188 -2.8203125 0.99609375 C-1.88960937 0.66738281 -0.95890625 0.33867187 0 0 Z " fill="#444343" transform="translate(195,376)"/>
<path d="M0 0 C-2.8973901 1.6140712 -5.33286311 2.3756433 -8.625 2.75 C-9.40101563 2.84796875 -10.17703125 2.9459375 -10.9765625 3.046875 C-13 3 -13 3 -15 1 C-9.69276568 -0.42705634 -5.46108889 -1.4002792 0 0 Z " fill="#2E2E2E" transform="translate(559,849)"/>
<path d="M0 0 C1.43931117 0.45261358 2.87638999 0.91232979 4.3125 1.375 C5.11300781 1.63023437 5.91351563 1.88546875 6.73828125 2.1484375 C9 3 9 3 12 5 C8.30962722 6.37095624 6.29116165 5.60010967 2.75 4.0625 C1.85796875 3.68222656 0.9659375 3.30195312 0.046875 2.91015625 C-0.62859375 2.60980469 -1.3040625 2.30945313 -2 2 C-1.34 1.34 -0.68 0.68 0 0 Z " fill="#272725" transform="translate(492,888)"/>
<path d="M0 0 C-9.41002278 3.62870159 -9.41002278 3.62870159 -14 2 C-4.96256684 -2.86631016 -4.96256684 -2.86631016 0 0 Z " fill="#2B2B2B" transform="translate(526,442)"/>
<path d="M0 0 C1.21236328 0.02707031 1.21236328 0.02707031 2.44921875 0.0546875 C3.37154297 0.08949219 3.37154297 0.08949219 4.3125 0.125 C4.3125 1.115 4.3125 2.105 4.3125 3.125 C0.3525 2.795 -3.6075 2.465 -7.6875 2.125 C-4.48369983 -0.01086678 -3.66810033 -0.10632175 0 0 Z " fill="#2B2A29" transform="translate(447.6875,818.875)"/>
<path d="M0 0 C0.6875 2.25 0.6875 2.25 1 5 C-0.4375 7.3125 -0.4375 7.3125 -2 9 C-3 7 -3 7 -2.875 4.5 C-2.936875 3.2625 -2.936875 3.2625 -3 2 C-3.99 1.34 -4.98 0.68 -6 0 C-3.50907189 -1.24546405 -2.58919267 -0.7767578 0 0 Z " fill="#161717" transform="translate(688,793)"/>
<path d="M0 0 C0.33 0 0.66 0 1 0 C1 3.63 1 7.26 1 11 C0.01 11.33 -0.98 11.66 -2 12 C-2.17835515 7.45194365 -1.99785435 4.1205746 0 0 Z " fill="#1D1D1D" transform="translate(363,564)"/>
<path d="M0 0 C0.99 0.99 1.98 1.98 3 3 C-1.95 2.67 -6.9 2.34 -12 2 C-7.21759717 -0.39120141 -5.23942569 -0.41582744 0 0 Z " fill="#292827" transform="translate(637,395)"/>
<path d="M0 0 C-2.97465763 1.70754834 -5.13860832 2.27317355 -8.5625 2.25 C-9.70912109 2.25773438 -9.70912109 2.25773438 -10.87890625 2.265625 C-13 2 -13 2 -16 0 C-10.39436958 -0.82622671 -5.57710648 -1.06795656 0 0 Z " fill="#272727" transform="translate(535,854)"/>
<path d="M0 0 C0.99 0.33 1.98 0.66 3 1 C0.14723863 3.93200474 -2.65079784 6.64315404 -6 9 C-6.66 8.67 -7.32 8.34 -8 8 C-5.36 5.36 -2.72 2.72 0 0 Z " fill="#222323" transform="translate(714,726)"/>
<path d="M0 0 C-3.46741134 2.95749791 -6.86873527 5.07848152 -11 7 C-10.9375 5.25 -10.9375 5.25 -10 3 C-6.69928831 0.41203839 -4.20321079 -1.40107026 0 0 Z " fill="#232423" transform="translate(456,525)"/>
<path d="M0 0 C0.33 0.99 0.66 1.98 1 3 C0.34 3.66 -0.32 4.32 -1 5 C-1.30599063 7.56916657 -1.51087087 10.04758384 -1.625 12.625 C-1.66367187 13.33140625 -1.70234375 14.0378125 -1.7421875 14.765625 C-1.83647724 16.50998524 -1.91932891 18.25495691 -2 20 C-2.33 20 -2.66 20 -3 20 C-3.08089542 17.22858283 -3.14044062 14.45952181 -3.1875 11.6875 C-3.22520508 10.50897461 -3.22520508 10.50897461 -3.26367188 9.30664062 C-3.27333984 8.54931641 -3.28300781 7.79199219 -3.29296875 7.01171875 C-3.3086792 6.31522217 -3.32438965 5.61872559 -3.34057617 4.90112305 C-2.90238443 2.45510217 -1.86562642 1.57297914 0 0 Z " fill="#464646" transform="translate(361,640)"/>
<path d="M0 0 C-3.42346555 3.14958831 -6.44262737 3.56179109 -11 4 C-10.67 3.01 -10.34 2.02 -10 1 C-3.84210526 -1.28070175 -3.84210526 -1.28070175 0 0 Z " fill="#191918" transform="translate(539,525)"/>
<path d="M0 0 C7.75 0.75 7.75 0.75 10 3 C5.99799622 4.60080151 2.95443764 3.29279692 -1 2 C-0.67 1.34 -0.34 0.68 0 0 Z " fill="#2C2C2B" transform="translate(379,732)"/>
<path d="M0 0 C0.66 0.66 1.32 1.32 2 2 C-2.39453125 6.00390625 -2.39453125 6.00390625 -4 7 C-4.99 6.67 -5.98 6.34 -7 6 C-4.69 4.02 -2.38 2.04 0 0 Z " fill="#1D1D1C" transform="translate(375,627)"/>
<path d="M0 0 C3 1 3 1 4.16796875 3.06640625 C4.50441406 3.89011719 4.84085938 4.71382813 5.1875 5.5625 C5.53167969 6.38878906 5.87585938 7.21507812 6.23046875 8.06640625 C6.48441406 8.70449219 6.73835937 9.34257812 7 10 C6.34 10.66 5.68 11.32 5 12 C4.16180842 10.37750059 3.3295884 8.75191503 2.5 7.125 C2.0359375 6.22007812 1.571875 5.31515625 1.09375 4.3828125 C0 2 0 2 0 0 Z " fill="#212221" transform="translate(691,464)"/>
<path d="M0 0 C-3.85675187 2.41046992 -7.53555468 2.71654315 -12 3 C-12.99 2.34 -13.98 1.68 -15 1 C-13.44033408 0.63355422 -11.87707349 0.28239138 -10.3125 -0.0625 C-9.44238281 -0.25972656 -8.57226562 -0.45695312 -7.67578125 -0.66015625 C-4.83998724 -1.02032279 -2.75210018 -0.70909969 0 0 Z " fill="#252525" transform="translate(551,435)"/>
<path d="M0 0 C0.33 0.99 0.66 1.98 1 3 C-0.65 4.65 -2.3 6.3 -4 8 C-4.99 7.67 -5.98 7.34 -7 7 C-4.78071806 4.09197539 -3.07030857 2.04687238 0 0 Z " fill="#191919" transform="translate(455,386)"/>
<path d="M0 0 C1.32 0.66 2.64 1.32 4 2 C0.7 3.32 -2.6 4.64 -6 6 C-6 5.01 -6 4.02 -6 3 C-3.25 1.375 -3.25 1.375 0 0 Z " fill="#191919" transform="translate(487,506)"/>
<path d="M0 0 C0 0.66 0 1.32 0 2 C-1.43333021 2.39063507 -2.87192679 2.76198474 -4.3125 3.125 C-5.51326172 3.43824219 -5.51326172 3.43824219 -6.73828125 3.7578125 C-9 4 -9 4 -12 2 C-10.7625 1.67 -9.525 1.34 -8.25 1 C-7.55390625 0.814375 -6.8578125 0.62875 -6.140625 0.4375 C-4 0 -4 0 0 0 Z " fill="#1A1A1A" transform="translate(539,401)"/>
<path d="M0 0 C0.33 0.99 0.66 1.98 1 3 C-0.75 5.0625 -0.75 5.0625 -3 7 C-4.32 6.67 -5.64 6.34 -7 6 C-4.69 4.02 -2.38 2.04 0 0 Z " fill="#1E1E1E" transform="translate(444,396)"/>
<path d="M0 0 C0 0.99 0 1.98 0 3 C-6.0546875 3.9765625 -6.0546875 3.9765625 -8 4 C-8.66 3.34 -9.32 2.68 -10 2 C-8.7090864 1.66376204 -7.41723903 1.33110751 -6.125 1 C-5.40570312 0.814375 -4.68640625 0.62875 -3.9453125 0.4375 C-2 0 -2 0 0 0 Z " fill="#2A2A2A" transform="translate(575,843)"/>
<path d="M0 0 C0.99 0 1.98 0 3 0 C6.22265625 5.2734375 6.22265625 5.2734375 7 7 C6.67 7.66 6.34 8.32 6 9 C5.34 9 4.68 9 4 9 C2.68 6.03 1.36 3.06 0 0 Z " fill="#201E1D" transform="translate(392,786)"/>
<path d="M0 0 C1.07765625 0.10183594 2.1553125 0.20367188 3.265625 0.30859375 C4.08546875 0.39238281 4.9053125 0.47617187 5.75 0.5625 C5.75 0.8925 5.75 1.2225 5.75 1.5625 C3.83496326 1.78531874 1.91783494 1.99021076 0 2.1875 C-1.06734375 2.30351563 -2.1346875 2.41953125 -3.234375 2.5390625 C-6.28792399 2.56279475 -7.71162421 2.17670985 -10.25 0.5625 C-6.70049966 -0.60056443 -3.69176052 -0.36115049 0 0 Z " fill="#0E0E0D" transform="translate(426.25,775.4375)"/>
<path d="M0 0 C0.66 0.66 1.32 1.32 2 2 C0.20991533 2.22151549 -1.58218162 2.42682213 -3.375 2.625 C-4.37273438 2.74101562 -5.37046875 2.85703125 -6.3984375 2.9765625 C-7.25695312 2.98429687 -8.11546875 2.99203125 -9 3 C-9.66 2.34 -10.32 1.68 -11 1 C-7.31620978 -0.17881287 -3.84458427 -0.21358801 0 0 Z " fill="#1C1C19" transform="translate(596,475)"/>
<path d="M0 0 C0.66 0.66 1.32 1.32 2 2 C-0.64 4.31 -3.28 6.62 -6 9 C-6.66 8.34 -7.32 7.68 -8 7 C-5.36 4.69 -2.72 2.38 0 0 Z " fill="#1C1C1A" transform="translate(703,633)"/>
<path d="M0 0 C0.33 0.99 0.66 1.98 1 3 C-2.96 4.98 -2.96 4.98 -7 7 C-7 6.01 -7 5.02 -7 4 C-4.69 2.68 -2.38 1.36 0 0 Z " fill="#1D1D1C" transform="translate(435,439)"/>
<path d="M0 0 C-2.70188004 1.80125336 -4.93057703 3.00243753 -8 4 C-8.99 3.67 -9.98 3.34 -11 3 C-10.34 3 -9.68 3 -9 3 C-9 2.34 -9 1.68 -9 1 C-5.57367167 -0.61798838 -3.61944899 -1.34053666 0 0 Z " fill="#161615" transform="translate(597,889)"/>
<path d="M0 0 C3.3 0.66 6.6 1.32 10 2 C5.01222852 4.49388574 3.33016752 3.88836125 -2 3 C-1.34 2.67 -0.68 2.34 0 2 C0 1.34 0 0.68 0 0 Z " fill="#262523" transform="translate(422,814)"/>
<path d="M0 0 C-2.6855594 2.6855594 -5.37621328 3.06049974 -9 4 C-9 3.01 -9 2.02 -9 1 C-3.375 -1.125 -3.375 -1.125 0 0 Z " fill="#252523" transform="translate(609,796)"/>
<path d="M0 0 C2 1 2 1 2.8515625 3.06640625 C3.10679687 3.89011719 3.36203125 4.71382812 3.625 5.5625 C3.88539063 6.38878906 4.14578125 7.21507812 4.4140625 8.06640625 C4.60742188 8.70449219 4.80078125 9.34257813 5 10 C4.01 10.495 4.01 10.495 3 11 C1.68 7.7 0.36 4.4 -1 1 C-0.67 0.67 -0.34 0.34 0 0 Z " fill="#1F1F1E" transform="translate(388,774)"/>
<path d="M0 0 C-1.14018002 3.42054006 -1.92458518 4.2426201 -5 6 C-7.13671875 5.578125 -7.13671875 5.578125 -9 5 C-7.87926138 4.16094435 -6.75325453 3.32892169 -5.625 2.5 C-4.99851562 2.0359375 -4.37203125 1.571875 -3.7265625 1.09375 C-2 0 -2 0 0 0 Z " fill="#20201E" transform="translate(666,665)"/>
<path d="M0 0 C0.66 0 1.32 0 2 0 C2 4.29 2 8.58 2 13 C1.67 13 1.34 13 1 13 C1 10.03 1 7.06 1 4 C0.01 3.67 -0.98 3.34 -2 3 C-1.34 2.01 -0.68 1.02 0 0 Z " fill="#4A4A48" transform="translate(726,658)"/>
<path d="M0 0 C0.99 0.33 1.98 0.66 3 1 C-0.11016455 4.28788824 -3.01618925 6.83735988 -7 9 C-5.44499019 5.18315774 -2.96404505 2.80804268 0 0 Z " fill="#0B0B0A" transform="translate(383,619)"/>
<path d="M0 0 C0.66 0.66 1.32 1.32 2 2 C0.8803014 3.00593243 -0.2459412 4.0045849 -1.375 5 C-2.00148438 5.556875 -2.62796875 6.11375 -3.2734375 6.6875 C-5 8 -5 8 -7 8 C-5.50902342 4.2047869 -3.24299151 2.38957269 0 0 Z " fill="#1C1C1D" transform="translate(390,510)"/>
<path d="M0 0 C0.66 0.66 1.32 1.32 2 2 C-2.39453125 6.00390625 -2.39453125 6.00390625 -4 7 C-4.99 6.67 -5.98 6.34 -7 6 C-4.74259377 3.66475218 -2.7194239 1.81294927 0 0 Z " fill="#181818" transform="translate(463,380)"/>
<path d="M0 0 C-2.96687001 1.64826111 -5.65626525 2.44271087 -9 3 C-9 2.01 -9 1.02 -9 0 C-5.52176885 -1.15941038 -3.54104422 -0.70820884 0 0 Z " fill="#21211F" transform="translate(572,810)"/>
<path d="M0 0 C-4.455 1.485 -4.455 1.485 -9 3 C-9 2.01 -9 1.02 -9 0 C-4.5 -2.25 -4.5 -2.25 0 0 Z " fill="#151614" transform="translate(583,717)"/>
<path d="M0 0 C-3.21627837 2.14418558 -5.19090105 2.67582137 -9 3 C-9.66 2.34 -10.32 1.68 -11 1 C-3.57142857 -1.42857143 -3.57142857 -1.42857143 0 0 Z " fill="#171616" transform="translate(563,482)"/>
<path d="M0 0 C4.455 0.99 4.455 0.99 9 2 C8.67 2.66 8.34 3.32 8 4 C5.69 3.67 3.38 3.34 1 3 C0.67 2.01 0.34 1.02 0 0 Z " fill="#2D2C2C" transform="translate(669,436)"/>
<path d="M0 0 C2.1640625 0.0234375 2.1640625 0.0234375 4.625 0.375 C5.85089844 0.54128906 5.85089844 0.54128906 7.1015625 0.7109375 C7.72804688 0.80632813 8.35453125 0.90171875 9 1 C4.8204355 3.78637633 2.85331323 2.79562512 -2 2 C-1.34 1.34 -0.68 0.68 0 0 Z " fill="#1A1918" transform="translate(433,817)"/>
<path d="M0 0 C0.33 0.99 0.66 1.98 1 3 C-4.75 7 -4.75 7 -7 7 C-5.66667905 3.00003714 -3.5042173 2.16217663 0 0 Z " fill="#1A1A19" transform="translate(661,709)"/>
<path d="M0 0 C0.33 0.66 0.66 1.32 1 2 C1.66 2 2.32 2 3 2 C2.25 3.9375 2.25 3.9375 1 6 C-1.125 6.75 -1.125 6.75 -3 7 C-2.01 4.69 -1.02 2.38 0 0 Z " fill="#282829" transform="translate(395,461)"/>
<path d="M0 0 C-0.33 0.66 -0.66 1.32 -1 2 C-3.32156597 2.40729228 -5.6568787 2.74438677 -8 3 C-8.33 2.34 -8.66 1.68 -9 1 C-3.375 -1.125 -3.375 -1.125 0 0 Z " fill="#282828" transform="translate(586,841)"/>
<path d="M0 0 C1.60875 0.3403125 1.60875 0.3403125 3.25 0.6875 C3.25 1.0175 3.25 1.3475 3.25 1.6875 C-0.38 2.0175 -4.01 2.3475 -7.75 2.6875 C-3.75 -0.3125 -3.75 -0.3125 0 0 Z " fill="#161613" transform="translate(536.75,817.3125)"/>
<path d="M0 0 C0.66 0.66 1.32 1.32 2 2 C-0.31 3.65 -2.62 5.3 -5 7 C-5 6.01 -5 5.02 -5 4 C-2.5 1.8125 -2.5 1.8125 0 0 Z " fill="#282928" transform="translate(703,736)"/>
<path d="M0 0 C-1 3 -1 3 -2.8125 4.25 C-5.33943414 5.11637742 -6.52221994 4.88492145 -9 4 C-2.25 0 -2.25 0 0 0 Z " fill="#272726" transform="translate(462,560)"/>
<path d="M0 0 C0.33 0.99 0.66 1.98 1 3 C-0.75 4.5625 -0.75 4.5625 -3 6 C-4.32 5.67 -5.64 5.34 -7 5 C-4.69 3.35 -2.38 1.7 0 0 Z " fill="#222222" transform="translate(398,504)"/>
<path d="M0 0 C0.99 0.66 1.98 1.32 3 2 C-1.43076923 4.09230769 -1.43076923 4.09230769 -4.3125 3.625 C-4.869375 3.41875 -5.42625 3.2125 -6 3 C-3 1 -3 1 0 0 Z " fill="#1E1E1D" transform="translate(510,444)"/>
<path d="M0 0 C3.65316671 1.24976756 4.78065836 1.67098753 7 5 C3.47967572 5 2.5614657 4.29648649 0 2 C0 1.34 0 0.68 0 0 Z " fill="#1C1C1A" transform="translate(455,866)"/>
<path d="M0 0 C0.66 0 1.32 0 2 0 C1.75 2.375 1.75 2.375 1 5 C-1.0625 6.3125 -1.0625 6.3125 -3 7 C-1.125 2.25 -1.125 2.25 0 0 Z " fill="#1C1D1C" transform="translate(674,817)"/>
<path d="M0 0 C-3.4352048 2.29013653 -4.985331 2.17842973 -9 2 C-6.98558063 -2.02883874 -3.72407517 -0.90585612 0 0 Z " fill="#252625" transform="translate(600,800)"/>
<path d="M0 0 C2.31 0.33 4.62 0.66 7 1 C7.33 1.99 7.66 2.98 8 4 C2.25 3.125 2.25 3.125 0 2 C0 1.34 0 0.68 0 0 Z " fill="#212020" transform="translate(391,770)"/>
<path d="M0 0 C0.33 0.66 0.66 1.32 1 2 C-4.41538462 3.23076923 -4.41538462 3.23076923 -7.375 2.0625 C-7.91125 1.711875 -8.4475 1.36125 -9 1 C-5.92677456 0.08941469 -3.19902639 -0.08886184 0 0 Z " fill="#1A1A18" transform="translate(515,737)"/>
<path d="M0 0 C-2.60314689 1.73543126 -3.98694043 2.61121812 -7 3 C-7.66 2.34 -8.32 1.68 -9 1 C-5.64919071 -1.10976881 -3.77897651 -1.0497157 0 0 Z " fill="#1C1C1C" transform="translate(574,720)"/>
<path d="M0 0 C1.85776765 3.13498292 2.20140476 5.37471432 2 9 C1.01 9.495 1.01 9.495 0 10 C-0.74926071 6.33694766 -1.2380014 3.57644848 0 0 Z " fill="#1A1A1A" transform="translate(368,709)"/>
<path d="M0 0 C0.66 0.33 1.32 0.66 2 1 C0.35 2.65 -1.3 4.3 -3 6 C-3.99 5.67 -4.98 5.34 -6 5 C-5.195625 4.360625 -4.39125 3.72125 -3.5625 3.0625 C-1.7249496 1.59396498 -1.7249496 1.59396498 0 0 Z " fill="#1E1E1E" transform="translate(674,700)"/>
<path d="M0 0 C-0.66 0.66 -1.32 1.32 -2 2 C-4.72869407 1.96712417 -7.2966618 1.43602229 -10 1 C-10 0.67 -10 0.34 -10 0 C-6.30458414 -0.95024979 -3.69541586 -0.95024979 0 0 Z " fill="#3A3A38" transform="translate(574,515)"/>
<path d="M0 0 C4.16138263 -0.08159574 7.9472484 0.01751476 12 1 C12 1.33 12 1.66 12 2 C4.61538462 3.35384615 4.61538462 3.35384615 1.5 1.5625 C1.005 1.046875 0.51 0.53125 0 0 Z " fill="#070605" transform="translate(668,510)"/>
<path d="M0 0 C0.33 0.99 0.66 1.98 1 3 C-0.75 4.5625 -0.75 4.5625 -3 6 C-4.32 5.67 -5.64 5.34 -7 5 C-4.69 3.35 -2.38 1.7 0 0 Z " fill="#212121" transform="translate(410,495)"/>
<path d="M0 0 C0.8353125 0.556875 0.8353125 0.556875 1.6875 1.125 C-0.6225 1.785 -2.9325 2.445 -5.3125 3.125 C-5.9725 2.465 -6.6325 1.805 -7.3125 1.125 C-2.88173077 -1.09038462 -2.88173077 -1.09038462 0 0 Z " fill="#2E2E2D" transform="translate(492.3125,451.875)"/>
<path d="M0 0 C2.64 0.33 5.28 0.66 8 1 C6 3 6 3 2.875 3.125 C1.451875 3.063125 1.451875 3.063125 0 3 C0 2.01 0 1.02 0 0 Z " fill="#2D2D2C" transform="translate(651,432)"/>
</svg>
