<?xml version="1.0" encoding="UTF-8"?>
<svg version="1.1" xmlns="http://www.w3.org/2000/svg" width="1073" height="976">
<path d="M0 0 C354.09 0 708.18 0 1073 0 C1073 322.08 1073 644.16 1073 976 C718.91 976 364.82 976 0 976 C0 653.92 0 331.84 0 0 Z " fill="#FEFEFE" transform="translate(0,0)"/>
<path d="M0 0 C1.16789062 0.30292969 2.33578125 0.60585938 3.5390625 0.91796875 C7.96177441 3.87253525 8.86992048 7.85849395 10.375 12.8125 C10.78057129 14.14438354 10.78057129 14.14438354 11.19433594 15.50317383 C12.00848286 18.36418011 12.73795937 21.23386204 13.4375 24.125 C13.82264771 25.70873413 13.82264771 25.70873413 14.21557617 27.32446289 C17.01149801 39.52654413 18.10088876 51.86089051 19.08129883 64.32006836 C19.23155334 66.80849673 19.23155334 66.80849673 20.375 68.8125 C20.75541388 73.17981669 20.79267389 77.5559213 20.875 81.9375 C20.92914062 83.14921875 20.98328125 84.3609375 21.0390625 85.609375 C21.12852912 91.47582882 21.17167662 95.73204049 17.234375 100.3125 C15.97759778 101.51108131 14.69168522 102.68005742 13.375 103.8125 C12.3271177 104.82969251 11.28018172 105.84786115 10.234375 106.8671875 C9.2020452 107.81182336 8.16550961 108.75188177 7.125 109.6875 C6.56635254 110.19579346 6.00770508 110.70408691 5.43212891 111.2277832 C4.29323683 112.26344804 3.1527957 113.29741224 2.01074219 114.32958984 C0.49133637 115.70703326 -1.01655112 117.09715299 -2.5234375 118.48828125 C-7.79702314 123.34632647 -13.19014773 127.98628803 -18.7734375 132.484375 C-21.23949545 134.4977593 -23.6532991 136.55917182 -26.05712891 138.64599609 C-41.20660282 151.72898929 -57.82368787 162.97869511 -74.625 173.8125 C-75.26791992 174.22806152 -75.91083984 174.64362305 -76.57324219 175.07177734 C-93.15820628 185.67972252 -111.17979917 194.85196357 -129.3359375 202.43359375 C-132.34757681 203.69619313 -135.29643185 205.04583316 -138.25 206.4375 C-197.12938721 233.17710336 -272.31511003 237.61406981 -333.625 216.8125 C-337.41897918 214.28318055 -337.3530879 213.01490095 -338.34375 208.65234375 C-338.63475586 207.39244629 -338.92576172 206.13254883 -339.22558594 204.83447266 C-339.5261644 203.47315239 -339.82595321 202.11165756 -340.125 200.75 C-340.43738329 199.36236782 -340.75021013 197.97483542 -341.06347656 196.58740234 C-343.20267901 187.03983069 -345.22927338 177.50048475 -346.625 167.8125 C-346.82585205 166.44883301 -346.82585205 166.44883301 -347.03076172 165.05761719 C-351.12852806 136.70973981 -351.12852806 136.70973981 -349.625 126.8125 C-347.72265625 124.359375 -347.72265625 124.359375 -345.625 122.8125 C-344.965 122.8125 -344.305 122.8125 -343.625 122.8125 C-342.635 120.8325 -342.635 120.8325 -341.625 118.8125 C-340.965 118.8125 -340.305 118.8125 -339.625 118.8125 C-339.41488281 118.2659375 -339.20476562 117.719375 -338.98828125 117.15625 C-337.12872638 113.95930753 -334.54523094 111.74531163 -331.8125 109.3125 C-330.63255302 108.24507843 -329.45287312 107.17736157 -328.2734375 106.109375 C-327.36609863 105.29243164 -327.36609863 105.29243164 -326.44042969 104.45898438 C-324.68695257 102.86868722 -322.95335956 101.25981153 -321.2265625 99.640625 C-315.67073006 94.43423662 -310.07023458 89.411385 -304.0625 84.72265625 C-301.5009688 82.71530247 -299.00184928 80.64365141 -296.5 78.5625 C-278.94157984 64.20099107 -260.2954837 51.1142189 -240.625 39.8125 C-239.98498047 39.4417334 -239.34496094 39.0709668 -238.68554688 38.68896484 C-228.85253018 33.00470618 -218.84634418 27.76159496 -208.625 22.8125 C-207.66762939 22.34432861 -207.66762939 22.34432861 -206.69091797 21.86669922 C-198.88295799 18.05934747 -191.02992251 14.74120259 -182.80078125 11.921875 C-180.14526294 10.99424007 -177.58446834 9.97939628 -175 8.875 C-154.55173027 0.56789042 -132.35202946 -3.86787976 -110.625 -7.1875 C-109.83287109 -7.30899414 -109.04074219 -7.43048828 -108.22460938 -7.55566406 C-73.00091171 -12.69949088 -34.34334336 -9.11074309 0 0 Z " fill="#000000" transform="translate(707.625,516.1875)"/>
<path d="M0 0 C12.9877345 10.50915921 25.51660776 33.02619524 27.3828125 49.6484375 C27.49601663 58.00290203 25.6104043 63.31796964 21.421875 70.40625 C12.216262 79.12735705 -2.6461871 81.92429359 -14.53515625 85.3671875 C-23.14183849 87.86522916 -31.76333418 90.40114468 -40.140625 93.59375 C-45.23147082 95.49524152 -50.41001549 96.9495089 -55.640625 98.40625 C-63.64103349 100.63621568 -71.5240581 103.1179222 -79.390625 105.78125 C-86.5845052 108.21683103 -93.76675457 110.51828331 -101.08984375 112.5390625 C-114.7382316 116.39989678 -128.19108955 121.04338195 -141.62792969 125.57763672 C-147.23497541 127.45390944 -152.88751323 129.13115718 -158.56933594 130.76464844 C-163.66267986 132.24169469 -168.68405737 133.88267915 -173.703125 135.59375 C-181.15724941 138.1281523 -188.67657797 140.33932357 -196.25439453 142.47192383 C-206.12446262 145.25342199 -215.9671937 148.12862014 -225.578125 151.71875 C-230.74505244 153.646708 -235.99820004 155.11903092 -241.30859375 156.59765625 C-244.91733866 157.64585547 -248.46029092 158.81505375 -252.015625 160.03125 C-257.84107414 162.01977761 -263.71297673 163.74939096 -269.640625 165.40625 C-273.41459721 166.47881538 -277.18430656 167.56572586 -280.953125 168.65625 C-282.13986816 168.9970459 -283.32661133 169.3378418 -284.54931641 169.68896484 C-288.3593638 170.7963716 -292.15654834 171.94109101 -295.953125 173.09375 C-297.16444092 173.44083008 -298.37575684 173.78791016 -299.6237793 174.14550781 C-307.71482914 176.60235109 -307.71482914 176.60235109 -313.09179688 182.74487305 C-313.37603516 183.37562744 -313.66027344 184.00638184 -313.953125 184.65625 C-314.25283203 185.31471924 -314.55253906 185.97318848 -314.86132812 186.65161133 C-315.71718354 188.69547789 -316.47252562 190.75211468 -317.203125 192.84375 C-317.45835937 193.54177734 -317.71359375 194.23980469 -317.9765625 194.95898438 C-323.2866167 209.64547638 -323.71410068 229.79657824 -317.34375 244.29296875 C-315.56466264 247.33237703 -314.83533004 247.713446 -311.4375 249.36328125 C-308.55950945 250.11344201 -305.67716339 250.51679951 -302.73046875 250.8984375 C-297.54974529 251.57896078 -293.09433759 253.32036747 -288.328125 255.40625 C-287.13243896 255.92783691 -287.13243896 255.92783691 -285.91259766 256.45996094 C-267.52426254 264.65848579 -248.63427461 275.5880714 -234.953125 290.65625 C-234.953125 291.31625 -234.953125 291.97625 -234.953125 292.65625 C-236.74133667 292.44512573 -236.74133667 292.44512573 -238.56567383 292.22973633 C-251.28525975 290.80043916 -263.84658836 290.2916721 -276.640625 290.34375 C-277.6017923 290.34590515 -278.56295959 290.3480603 -279.55325317 290.35028076 C-294.53612948 290.40400008 -309.17843116 290.97934389 -323.953125 293.65625 C-325.0757373 293.85492676 -326.19834961 294.05360352 -327.35498047 294.25830078 C-357.05819579 299.64531239 -386.35239894 308.34678491 -413.953125 320.65625 C-415.06945312 321.15382813 -416.18578125 321.65140625 -417.3359375 322.1640625 C-438.15452029 331.59875366 -458.15171392 342.76683356 -476.97875977 355.72216797 C-480.53888774 358.15282297 -483.82144381 360.28986724 -487.953125 361.65625 C-478.02110765 340.7677092 -466.10113119 320.97640917 -450.20703125 304.0625 C-448.27348963 301.99826839 -446.45118616 299.88964397 -444.640625 297.71875 C-423.42714716 273.55895579 -392.06917403 253.49439225 -359.953125 248.65625 C-358.963125 248.65625 -357.973125 248.65625 -356.953125 248.65625 C-356.75976562 247.99238281 -356.56640625 247.32851563 -356.3671875 246.64453125 C-354.14386834 239.10505785 -354.14386834 239.10505785 -352.890625 236.15625 C-347.78576464 222.54328903 -349.12863991 209.18218324 -353.859375 195.82421875 C-354.953125 192.65625 -354.953125 192.65625 -354.953125 190.65625 C-355.9225 190.97078125 -356.891875 191.2853125 -357.890625 191.609375 C-365.48250002 194.04367423 -373.06525804 196.25925571 -380.81518555 198.13793945 C-385.82819689 199.35827184 -390.79910663 200.69666435 -395.765625 202.09375 C-402.5217012 203.9922528 -409.29486193 205.80626695 -416.08666992 207.57226562 C-422.19377576 209.17036394 -428.27452311 210.85490187 -434.35424805 212.55395508 C-445.8855095 215.77375725 -457.42973119 218.78816477 -469.08740234 221.51416016 C-475.35252057 222.99246888 -481.53255365 224.63803731 -487.703125 226.46875 C-501.43202955 230.52804053 -515.3918474 233.71667734 -529.30952454 237.05302429 C-536.87048649 238.86907163 -544.41266654 240.75714323 -551.953125 242.65625 C-600.1043171 254.75492085 -648.36679031 266.41809445 -696.953125 276.65625 C-696.953125 275.99625 -696.953125 275.33625 -696.953125 274.65625 C-665.0390232 261.43965883 -632.82975784 248.93306626 -600.50097656 236.76977539 C-590.40178131 232.96929487 -580.32635977 229.11103816 -570.26123047 225.22128296 C-551.23347613 217.86988926 -532.12913054 210.73534157 -513.00283813 203.64494324 C-503.35319051 200.06609312 -493.714445 196.45830801 -484.078125 192.84375 C-483.2361557 192.52804047 -482.3941864 192.21233093 -481.52670288 191.88705444 C-472.54560012 188.5187211 -463.57039118 185.1359875 -454.60766602 181.71899414 C-438.47104359 175.56730476 -422.27542756 169.57810632 -406.07791138 163.58889771 C-391.12806767 158.0607562 -376.18585315 152.51385761 -361.265625 146.90625 C-348.57975689 142.13857534 -335.88630023 137.3921691 -323.18301392 132.67108154 C-320.45923745 131.65852229 -317.73578367 130.64510033 -315.01245117 129.63134766 C-313.67125465 129.13210281 -313.67125465 129.13210281 -312.30296326 128.62277222 C-310.50360945 127.95297056 -308.70426251 127.28315045 -306.90492249 126.61331177 C-302.56841808 124.99950474 -298.23107299 123.38803981 -293.89160156 121.78222656 C-245.97196539 104.04816253 -198.48519038 85.20864013 -152.32617188 63.25683594 C-149.13973828 61.74480216 -145.94626632 60.24892322 -142.75 58.7578125 C-130.46960149 53.00070618 -118.5334571 46.76071344 -106.68261719 40.16796875 C-103.05273569 38.15757284 -99.40445749 36.18189726 -95.75634766 34.20483398 C-88.26010361 30.14019498 -80.80173115 26.01915498 -73.39331055 21.79638672 C-64.56463885 16.76448577 -55.69180476 11.83490267 -46.703125 7.09375 C-45.78732666 6.60519531 -44.87152832 6.11664063 -43.92797852 5.61328125 C-31.1870466 -1.04001969 -13.47738925 -8.85375936 0 0 Z " fill="#000000" transform="translate(879.953125,106.34375)"/>
<path d="M0 0 C0.34898849 9.42473005 -0.53299502 18.31602506 -2.02636719 27.58544922 C-2.37660095 29.75993977 -2.71292151 31.93623649 -3.046875 34.11328125 C-4.46513942 43.24984816 -5.96007363 52.23785928 -9 61 C-9.1340625 61.75023437 -9.268125 62.50046875 -9.40625 63.2734375 C-11.02169169 70.99429851 -14.9887298 74.21694805 -21.23828125 78.71484375 C-23.15895309 80.11595469 -25.03319787 81.56712933 -26.90625 83.03125 C-40.72064713 93.80498702 -54.85488317 104.16341576 -70 113 C-70.75764648 113.44311523 -71.51529297 113.88623047 -72.29589844 114.34277344 C-89.47472876 124.35317009 -106.62008436 134.01584153 -125.16162109 141.26806641 C-127.71731496 142.28559233 -130.22958565 143.39843277 -132.75 144.5 C-166.37665505 158.40507628 -203.62489969 166.52406595 -240.0625 166.25 C-241.19677933 166.24484879 -241.19677933 166.24484879 -242.35397339 166.23959351 C-263.75675913 166.12649677 -284.31253431 164.19809702 -305.25439453 159.59082031 C-307.58013645 159.09034944 -309.90360019 158.65376147 -312.24609375 158.2421875 C-318.7852351 156.80584431 -321.67240867 154.86604248 -325.3125 149.1875 C-326.25080406 147.42151298 -327.18815719 145.65432483 -328.07177734 143.86035156 C-329.01248051 141.97498646 -330.0181922 140.14115512 -331.05078125 138.3046875 C-343 116.88738612 -343 116.88738612 -343 111 C-335.96988235 111.68056029 -329.22528909 112.90341792 -322.33984375 114.45117188 C-305.73256139 117.96785083 -288.91285761 118.38088335 -272 118.3125 C-270.96487274 118.30934784 -269.92974548 118.30619568 -268.86325073 118.302948 C-229.74936931 118.12861317 -191.49284855 111.39013516 -155 97 C-154.15421387 96.66693848 -153.30842773 96.33387695 -152.43701172 95.99072266 C-148.76160157 94.52835202 -145.10547398 93.0287173 -141.46875 91.47265625 C-138.66393092 90.28187157 -135.85473154 89.18600856 -133 88.125 C-126.93647939 85.72442529 -121.26578989 82.51331282 -115.5390625 79.4140625 C-112.16647987 77.59338417 -108.74858215 75.89252224 -105.3046875 74.2109375 C-98.49185237 70.81902447 -91.99027334 66.96667603 -85.5 63 C-84.89526855 62.63205322 -84.29053711 62.26410645 -83.66748047 61.88500977 C-68.90991687 52.88975725 -54.75278695 43.09919664 -41.1171875 32.4765625 C-39 31 -39 31 -37 31 C-37 30.34 -37 29.68 -37 29 C-35.56640625 27.73828125 -35.56640625 27.73828125 -33.5625 26.3125 C-32.45455078 25.50619141 -32.45455078 25.50619141 -31.32421875 24.68359375 C-30.55722656 24.12800781 -29.79023437 23.57242188 -29 23 C-23.38951863 18.80554834 -18.01015841 14.36315926 -12.6875 9.8125 C-12.08856934 9.30122559 -11.48963867 8.78995117 -10.87255859 8.26318359 C-8.38417585 6.12198449 -5.9953596 3.9952173 -3.70703125 1.63671875 C-2 0 -2 0 0 0 Z " fill="#000000" transform="translate(728,658)"/>
<path d="M0 0 C67.15030491 -2.27756828 67.15030491 -2.27756828 84.68945312 12.1328125 C86.66478668 14.79221248 88.27081736 17.61408198 89.87695312 20.5078125 C90.34528564 21.334021 90.81361816 22.16022949 91.29614258 23.01147461 C105.68945312 48.81226221 105.68945312 48.81226221 105.68945312 54.1328125 C97.23784598 53.42227916 88.96043007 52.05590237 80.61132812 50.59375 C79.60585938 50.42101562 78.60039063 50.24828125 77.56445312 50.0703125 C76.23027344 49.83634766 76.23027344 49.83634766 74.86914062 49.59765625 C66.84373788 48.42440941 58.90081903 47.95918974 50.79492188 47.89453125 C49.77751923 47.8847374 48.76011658 47.87494354 47.71188354 47.86485291 C25.69638725 47.69655985 4.34670198 47.7855905 -17.31054688 52.1328125 C-18.44347168 52.35243652 -19.57639648 52.57206055 -20.74365234 52.79833984 C-48.32954286 58.23548077 -75.89167669 66.4051764 -101.25585938 78.68359375 C-103.53077462 79.7628694 -105.79342539 80.77114919 -108.11523438 81.73828125 C-117.14471277 85.5110286 -125.35381945 89.96904803 -133.65869141 95.13085938 C-135.91111673 96.49709549 -138.22742253 97.72302856 -140.56054688 98.9453125 C-165.96489904 112.61006062 -189.31601514 130.38057743 -211.52539062 148.66796875 C-213.13406833 149.98799969 -214.7529528 151.2955683 -216.37304688 152.6015625 C-222.18345572 157.289506 -227.73057348 162.17807805 -233.19335938 167.26171875 C-235.31054688 169.1328125 -235.31054688 169.1328125 -236.31054688 169.1328125 C-236.49815169 151.78789433 -233.44452703 135.01677501 -229.89697266 118.08349609 C-229.3846895 115.50587154 -228.96350302 112.94002197 -228.58789062 110.33984375 C-226.83071553 99.49660385 -221.76074129 94.74412248 -213.24267578 88.55957031 C-211.35981549 87.16919433 -209.55705564 85.71757489 -207.75976562 84.21875 C-197.73635381 75.88015376 -187.06459084 68.48960946 -176.31054688 61.1328125 C-175.68954102 60.70419922 -175.06853516 60.27558594 -174.42871094 59.83398438 C-168.59466091 55.80838768 -162.70267676 52.11629591 -156.43554688 48.8046875 C-154.09931293 47.55480234 -151.79606929 46.27765449 -149.49804688 44.9609375 C-128.9120063 33.20534444 -107.81085607 23.59911031 -85.31054688 16.1328125 C-84.28413086 15.78234863 -83.25771484 15.43188477 -82.20019531 15.07080078 C-55.51210282 6.0005293 -28.14387079 1.12907564 0 0 Z " fill="#000000" transform="translate(595.310546875,427.8671875)"/>
<path d="M0 0 C0.33 0.66 0.66 1.32 1 2 C0.24658203 3.93261719 0.24658203 3.93261719 -0.9921875 6.296875 C-1.44537354 7.16634766 -1.89855957 8.03582031 -2.36547852 8.93164062 C-2.86362061 9.86169922 -3.3617627 10.79175781 -3.875 11.75 C-4.38023193 12.70068359 -4.88546387 13.65136719 -5.40600586 14.63085938 C-12.20521191 27.2767619 -20.10868938 38.74946932 -29 50 C-30.77918612 52.33194297 -32.55756883 54.66446078 -34.33203125 57 C-36.41066181 59.49240947 -38.68822219 61.72282964 -41 64 C-41.79277344 64.82757812 -42.58554687 65.65515625 -43.40234375 66.5078125 C-70.76344558 94.75425045 -107.47314783 114.54672972 -147.30883789 115.29223633 C-159.67287385 115.3756481 -171.05383971 114.20301324 -183 111 C-184.01779541 110.72712158 -184.01779541 110.72712158 -185.05615234 110.44873047 C-195.3255997 107.57943919 -204.66276896 103.04561518 -214 98 C-215.07378906 97.42121094 -216.14757812 96.84242188 -217.25390625 96.24609375 C-227.72625597 90.36137051 -236.97556879 83.14366971 -245.796875 75.01953125 C-248.45746425 72.58065777 -251.20391271 70.28101858 -254 68 C-250.16643179 66.62189624 -246.71306529 67.32791134 -242.796875 67.9140625 C-231.31040951 69.43191125 -219.81906703 69.39695571 -208.25 69.375 C-207.12205017 69.37412384 -205.99410034 69.37324768 -204.83197021 69.37234497 C-176.82216852 69.30065218 -151.09108513 65.27220399 -124 58 C-122.92314941 57.7122168 -121.84629883 57.42443359 -120.73681641 57.12792969 C-77.10344503 45.30957341 -37.414882 25.10735502 0 0 Z " fill="#000000" transform="translate(693,786)"/>
</svg>
